<svg width="316" height="70" viewBox="0 0 316 70" fill="none" xmlns="http://www.w3.org/2000/svg">
<path d="M84.4868 49.7637C84.6341 49.7637 84.855 49.5575 85.1495 49.1451C85.4735 48.7328 85.8417 48.0406 86.2541 47.0686C86.4603 46.6268 86.7842 45.8757 87.2261 44.8154C87.6973 43.7256 88.2275 42.4738 88.8166 41.06C89.4351 39.6168 90.0684 38.1146 90.7164 36.5536C91.3938 34.9925 92.0271 33.4903 92.6161 32.0471C93.2347 30.6038 93.7648 29.3373 94.2067 28.2475C94.6779 27.1577 95.0019 26.3772 95.1786 25.9059C95.5615 24.9634 95.7677 24.286 95.7972 23.8736C95.8266 23.4612 95.7677 23.2551 95.6204 23.2551H105.252C105.134 23.2551 105.09 23.4612 105.119 23.8736C105.149 24.2565 105.355 24.9339 105.738 25.9059C105.915 26.3772 106.224 27.1577 106.666 28.2475C107.108 29.3079 107.623 30.5597 108.212 32.0029C108.801 33.4167 109.42 34.9041 110.068 36.4652C110.716 38.0263 111.334 39.5284 111.923 40.9717C112.512 42.3854 113.042 43.6372 113.514 44.727C113.985 45.8168 114.324 46.5974 114.53 47.0686C114.972 48.0406 115.399 48.7328 115.811 49.1451C116.224 49.5575 116.533 49.7637 116.739 49.7637H106.71C106.946 49.7342 107.137 49.5133 107.284 49.101C107.461 48.6591 107.461 47.9817 107.284 47.0686C107.255 46.8625 107.225 46.7005 107.196 46.5826C107.166 46.4354 107.108 46.2292 107.019 45.9641C106.901 45.5223 106.769 45.213 106.622 45.0363C106.474 44.8301 106.224 44.7123 105.87 44.6829C105.546 44.6534 105.002 44.6387 104.236 44.6387H96.6366C95.8414 44.6387 95.2523 44.6681 94.8694 44.727C94.4865 44.7565 94.2214 44.8596 94.0741 45.0363C93.9268 45.213 93.809 45.5076 93.7207 45.9199C93.6912 46.0672 93.647 46.2586 93.5881 46.4943C93.5587 46.7299 93.5292 46.9214 93.4998 47.0686C93.2936 48.0112 93.2347 48.6886 93.323 49.101C93.4408 49.5133 93.5881 49.7342 93.7648 49.7637H84.4868ZM97.7853 39.7788H102.954C103.809 39.7788 104.28 39.7051 104.368 39.5579C104.457 39.4106 104.412 39.0866 104.236 38.5859C103.853 37.6433 103.47 36.6861 103.087 35.7141C102.704 34.7127 102.336 33.7407 101.983 32.7982C101.659 31.8556 101.364 30.9867 101.099 30.1915C100.863 29.3668 100.657 28.6746 100.48 28.115H100.392C99.9796 29.2048 99.5526 30.3535 99.1107 31.5611C98.6689 32.7687 98.2566 33.888 97.8737 34.9189C97.4908 35.9497 97.1815 36.8039 96.9459 37.4814C96.7102 38.1293 96.5924 38.4533 96.5924 38.4533C96.3862 38.9246 96.3126 39.2633 96.3715 39.4695C96.4304 39.6757 96.9017 39.7788 97.7853 39.7788ZM118.173 49.7637C118.38 49.7637 118.586 49.5575 118.792 49.1451C118.998 48.7328 119.101 48.0553 119.101 47.1128V25.9059C119.101 24.9634 118.998 24.3007 118.792 23.9178C118.586 23.5054 118.38 23.2845 118.173 23.2551H126.833C126.627 23.2551 126.568 23.4612 126.656 23.8736C126.774 24.286 127.26 24.9929 128.114 25.9943C128.35 26.2299 128.733 26.6717 129.263 27.3197C129.823 27.9383 130.485 28.6893 131.251 29.573C132.017 30.4566 132.827 31.4138 133.681 32.4447C134.565 33.4756 135.448 34.5065 136.332 35.5374C137.245 36.5683 138.114 37.555 138.939 38.4975H138.983V25.9059C138.983 24.9634 138.88 24.3007 138.673 23.9178C138.467 23.5054 138.261 23.2845 138.055 23.2551H146.714C146.508 23.2551 146.302 23.4612 146.096 23.8736C145.89 24.286 145.787 24.9781 145.787 25.9501V47.1128C145.787 48.0553 145.89 48.7328 146.096 49.1451C146.302 49.5575 146.508 49.7637 146.714 49.7637H139.115C139.292 49.7637 139.307 49.5575 139.159 49.1451C139.042 48.7328 138.585 48.0259 137.79 47.0244C137.377 46.4943 136.833 45.8168 136.155 44.9921C135.478 44.138 134.712 43.1954 133.858 42.1645C133.033 41.1336 132.164 40.0586 131.251 38.9393C130.338 37.8201 129.425 36.7303 128.512 35.6699C127.628 34.5801 126.803 33.5787 126.038 32.6656H125.905V47.1128C125.905 48.0553 126.008 48.7328 126.214 49.1451C126.421 49.5575 126.627 49.7637 126.833 49.7637H118.173ZM158.736 49.7637C158.942 49.7637 159.148 49.5575 159.354 49.1451C159.56 48.7328 159.664 48.0553 159.664 47.1128V29.4404C159.664 28.7924 159.59 28.4095 159.443 28.2917C159.295 28.1739 158.78 28.115 157.896 28.115H154.671C152.963 28.115 151.578 28.3064 150.518 28.6893C149.487 29.0428 148.81 29.3815 148.486 29.7055L149.369 24.5805V23.2551H176.762V24.5805L177.645 29.7055C177.321 29.3815 176.629 29.0428 175.569 28.6893C174.538 28.3064 173.168 28.115 171.46 28.115H168.279C167.366 28.115 166.836 28.1739 166.688 28.2917C166.541 28.4095 166.467 28.7924 166.467 29.4404V47.1128C166.467 48.0553 166.571 48.7328 166.777 49.1451C166.983 49.5575 167.189 49.7637 167.395 49.7637H158.736ZM179.399 49.7637C179.605 49.7637 179.796 49.5722 179.973 49.1893C180.179 48.777 180.282 48.0848 180.282 47.1128V25.9059C180.282 24.9634 180.179 24.286 179.973 23.8736C179.796 23.4612 179.605 23.2551 179.399 23.2551H187.926C187.719 23.2551 187.513 23.4612 187.307 23.8736C187.101 24.2565 186.998 24.9487 186.998 25.9501V47.1128C186.998 48.0553 187.101 48.7328 187.307 49.1451C187.513 49.5575 187.719 49.7637 187.926 49.7637H179.399ZM205.376 50.2055C200.31 50.2055 196.643 48.9979 194.375 46.5826C192.136 44.138 191.017 40.736 191.017 36.3768C191.017 33.5787 191.503 31.1782 192.475 29.1753C193.476 27.143 195.023 25.5819 197.114 24.4921C199.235 23.3729 201.989 22.8133 205.376 22.8133H206.745C210.074 22.8133 212.769 23.3582 214.83 24.448C216.922 25.5378 218.453 27.0988 219.425 29.1311C220.397 31.1635 220.883 33.5787 220.883 36.3768C220.883 40.736 219.764 44.138 217.525 46.5826C215.287 48.9979 211.694 50.2055 206.745 50.2055H205.376ZM205.818 45.3014H206.304C208.1 45.3014 209.573 45.0069 210.722 44.4178C211.9 43.8287 212.769 42.8862 213.328 41.5902C213.888 40.2648 214.168 38.527 214.168 36.3768C214.168 34.2856 213.873 32.6067 213.284 31.3402C212.724 30.0442 211.856 29.1164 210.677 28.5568C209.529 27.9677 208.071 27.6732 206.304 27.6732H205.818C203.991 27.6732 202.474 27.9824 201.267 28.601C200.059 29.1901 199.161 30.1179 198.572 31.3844C198.012 32.6509 197.732 34.315 197.732 36.3768C197.732 38.527 198.027 40.2648 198.616 41.5902C199.235 42.8862 200.133 43.8287 201.311 44.4178C202.519 45.0069 204.021 45.3014 205.818 45.3014ZM216.068 57.8046C214.506 57.8046 213.166 57.5395 212.047 57.0094C210.957 56.5086 210 55.8754 209.175 55.1096C208.38 54.3732 207.644 53.6221 206.966 52.8563C206.318 52.12 205.685 51.4867 205.066 50.9566C204.448 50.4558 203.77 50.2055 203.034 50.2055C202.622 50.2055 202.298 50.3233 202.062 50.5589C201.856 50.824 201.753 51.2806 201.753 51.9285C201.753 52.4293 201.797 52.8711 201.885 53.254C202.003 53.6663 202.106 53.9756 202.195 54.1818C201.723 53.8872 201.09 53.5927 200.295 53.2982C199.529 53.0036 198.822 52.8563 198.174 52.8563C198.174 51.2953 198.734 50.1024 199.853 49.2777C200.972 48.4235 202.327 47.9964 203.918 47.9964C205.508 47.9964 206.907 48.2173 208.115 48.6591C209.323 49.0715 210.383 49.5869 211.296 50.2055C212.209 50.824 213.019 51.4425 213.726 52.0611C214.433 52.6796 215.081 53.1951 215.67 53.6074C216.259 54.0492 216.848 54.2701 217.437 54.2701C217.908 54.2701 218.232 54.1376 218.409 53.8725C218.615 53.6369 218.718 53.3129 218.718 52.9005C218.718 52.3114 218.615 51.7665 218.409 51.2658C218.232 50.7946 218.041 50.4411 217.835 50.2055H222.297C222.297 51.0302 222.194 51.8844 221.988 52.768C221.811 53.6516 221.487 54.4763 221.016 55.2421C220.545 56.0079 219.911 56.6265 219.116 57.0977C218.321 57.569 217.305 57.8046 216.068 57.8046ZM238.316 50.2055C235.341 50.2055 232.897 49.7342 230.982 48.7917C229.068 47.8492 227.654 46.4943 226.741 44.727C225.828 42.9303 225.371 40.7949 225.371 38.3208V25.8618C225.371 24.9192 225.268 24.2565 225.062 23.8736C224.885 23.4612 224.694 23.2551 224.487 23.2551H232.97C232.764 23.2845 232.558 23.4907 232.352 23.8736C232.175 24.2565 232.087 24.9192 232.087 25.8618V38.2324C232.087 40.1175 232.352 41.5755 232.882 42.6063C233.412 43.6372 234.148 44.3441 235.091 44.727C236.033 45.1099 237.123 45.3014 238.36 45.3014H238.846C239.818 45.3014 240.672 45.1983 241.409 44.9921C242.175 44.7859 242.808 44.4325 243.309 43.9318C243.839 43.4311 244.236 42.7242 244.501 41.8111C244.796 40.8686 244.943 39.6757 244.943 38.2324V25.8618C244.943 24.9192 244.84 24.2565 244.634 23.8736C244.457 23.4612 244.266 23.2551 244.06 23.2551H252.542C252.336 23.2845 252.13 23.5054 251.924 23.9178C251.747 24.3007 251.659 24.9634 251.659 25.9059V38.3208C251.659 40.7949 251.187 42.9303 250.245 44.727C249.332 46.4943 247.918 47.8492 246.004 48.7917C244.119 49.7342 241.703 50.2055 238.758 50.2055H238.316ZM256.092 49.7637C256.299 49.7637 256.505 49.5575 256.711 49.1451C256.917 48.7328 257.02 48.0553 257.02 47.1128V25.9059C257.02 24.9634 256.917 24.3007 256.711 23.9178C256.505 23.5054 256.299 23.2845 256.092 23.2551H281.894V24.5805L282.778 29.7055C282.041 29.3815 280.745 29.0428 278.89 28.6893C277.034 28.3064 274.796 28.115 272.174 28.115H265.635C264.752 28.115 264.222 28.1886 264.045 28.3359C263.898 28.4537 263.824 28.8219 263.824 29.4404V32.7098C263.824 33.3578 263.898 33.7407 264.045 33.8585C264.222 33.9763 264.737 34.0352 265.591 34.0352H271.953C273.662 34.0352 275.031 33.9469 276.062 33.7701C277.123 33.564 277.815 33.3578 278.139 33.1516C278.021 33.7112 277.888 34.3592 277.741 35.0956C277.594 35.8319 277.476 36.5388 277.388 37.2163C277.299 37.8937 277.255 38.4533 277.255 38.8951H265.591C264.737 38.8951 264.222 38.9541 264.045 39.0719C263.898 39.1602 263.824 39.5431 263.824 40.2206V43.49C263.824 44.1674 263.898 44.565 264.045 44.6829C264.192 44.8007 264.708 44.8596 265.591 44.8596H277.52C279.229 44.8596 280.598 44.6681 281.629 44.2852C282.689 43.8729 283.382 43.4752 283.706 43.0923L282.822 48.3941V49.7637H256.092ZM300.243 50.2055C297.033 50.2055 294.19 50.0582 291.716 49.7637C289.242 49.4691 287.46 49.1746 286.37 48.8801V47.5546L285.487 41.9436C286.046 42.4149 286.974 42.9156 288.27 43.4458C289.566 43.976 291.23 44.4325 293.262 44.8154C295.295 45.1688 297.651 45.3456 300.331 45.3456C301.981 45.3456 303.247 45.2425 304.131 45.0363C305.015 44.8007 305.618 44.4767 305.942 44.0643C306.266 43.652 306.428 43.166 306.428 42.6063C306.428 41.8995 306.193 41.3546 305.721 40.9717C305.25 40.5593 304.396 40.2206 303.159 39.9555C301.951 39.6904 300.228 39.4106 297.99 39.1161C295.309 38.7626 293.071 38.2766 291.274 37.6581C289.478 37.0395 288.137 36.1707 287.254 35.0514C286.37 33.9027 285.928 32.3858 285.928 30.5008C285.928 28.9691 286.326 27.629 287.121 26.4803C287.917 25.3316 289.198 24.4332 290.965 23.7852C292.732 23.1373 295.074 22.8133 297.99 22.8133C301.053 22.8133 303.674 22.9605 305.854 23.2551C308.034 23.5496 309.536 23.8442 310.36 24.1387V25.4641L311.686 30.324C310.95 29.9411 309.889 29.5435 308.505 29.1311C307.121 28.7188 305.515 28.3801 303.689 28.115C301.863 27.8204 299.89 27.6732 297.769 27.6732C296.443 27.6732 295.413 27.791 294.676 28.0266C293.94 28.2328 293.41 28.5421 293.086 28.9544C292.791 29.3373 292.644 29.8233 292.644 30.4124C292.644 31.1193 292.909 31.6936 293.439 32.1355C293.999 32.5478 294.897 32.8865 296.134 33.1516C297.371 33.4167 299.035 33.6671 301.127 33.9027C304.337 34.2561 306.811 34.7863 308.549 35.4932C310.287 36.2001 311.48 37.1132 312.128 38.2324C312.805 39.3222 313.144 40.6477 313.144 42.2087C313.144 43.5636 312.894 44.7565 312.393 45.7874C311.892 46.7888 311.112 47.6135 310.051 48.2615C309.02 48.9095 307.68 49.3955 306.031 49.7195C304.411 50.0435 302.482 50.2055 300.243 50.2055Z" fill="white"/>
<path fill-rule="evenodd" clip-rule="evenodd" d="M14.1701 34.8123C25.2817 36.9014 34.0241 45.5014 36.1478 56.4319C38.2716 45.5014 47.014 36.9014 58.1256 34.8123C47.014 32.7231 38.2716 24.1232 36.1478 13.1927C34.0241 24.1232 25.2817 32.7231 14.1701 34.8123ZM9.90263 34.3435C23.9206 33.8485 35.1681 22.7843 35.6713 8.99476H36.6244C37.1275 22.7843 48.3751 33.8485 62.393 34.3435V35.2811C48.3751 35.776 37.1275 46.8403 36.6244 60.6298H35.6713C35.1681 46.8403 23.9206 35.776 9.90263 35.2811V34.3435Z" fill="white"/>
<path fill-rule="evenodd" clip-rule="evenodd" d="M36.4767 8.99476L36.1415 0.0986328L35.8064 8.99476H35.6588L35.3157 18.397C34.0251 26.4518 27.5422 32.7933 19.3368 34.0099L9.89018 34.3435V34.4702L0.375977 34.8123L9.89018 35.1544V35.2811L19.3366 35.6146C27.5421 36.8312 34.0251 43.1727 35.3157 51.2276L35.6588 60.6298H35.8064L36.1415 69.5259L36.4767 60.6298H36.6119L36.9513 51.3298C38.2034 43.2251 44.7083 36.8344 52.9504 35.614L62.3806 35.2811V35.1548L71.9071 34.8123L62.3806 34.4698V34.3435L52.9502 34.0105C44.7082 32.7901 38.2034 26.3994 36.9513 18.2947L36.6119 8.99476H36.4767ZM36.4767 8.99476H35.8064L35.5367 16.1518C35.5081 16.9127 35.4335 17.662 35.3157 18.397L34.766 33.4652L19.3368 34.0099C18.6272 34.1152 17.9047 34.182 17.1716 34.2084L9.89018 34.4702V35.1544L17.1716 35.4161C17.9046 35.4425 18.6271 35.5094 19.3366 35.6146L34.766 36.1594L35.3157 51.2276C35.4335 51.9626 35.5081 52.7119 35.5367 53.4728L35.8064 60.6298H36.4767L36.7464 53.4728C36.7737 52.7471 36.8428 52.032 36.9513 51.3298L37.5048 36.1594L52.9504 35.614C53.6587 35.5091 54.3798 35.4425 55.1115 35.4161L62.3806 35.1548V34.4698L55.1115 34.2084C54.3797 34.1821 53.6585 34.1154 52.9502 34.0105L37.5048 33.4652L36.9513 18.2947C36.8428 17.5925 36.7737 16.8774 36.7464 16.1517L36.4767 8.99476ZM35.6873 34.3715L36.1354 22.0899L36.5835 34.3715L49.0685 34.8123L36.5835 35.2531L36.1354 47.5346L35.6873 35.2531L23.2023 34.8123L35.6873 34.3715Z" fill="white"/>
</svg>
