<svg width="151" height="33" viewBox="0 0 151 33" fill="none" xmlns="http://www.w3.org/2000/svg">
<path d="M39.9795 24.1185C40.0495 24.1185 40.1545 24.0205 40.2945 23.8245C40.4485 23.6285 40.6235 23.2995 40.8195 22.8375C40.9175 22.6275 41.0715 22.2705 41.2815 21.7665C41.5055 21.2485 41.7575 20.6535 42.0375 19.9815C42.3315 19.2955 42.6325 18.5815 42.9405 17.8395C43.2625 17.0975 43.5635 16.3835 43.8435 15.6975C44.1375 15.0115 44.3895 14.4095 44.5995 13.8915C44.8235 13.3735 44.9775 13.0025 45.0615 12.7785C45.2435 12.3305 45.3415 12.0085 45.3555 11.8125C45.3695 11.6165 45.3415 11.5185 45.2715 11.5185H49.8495C49.7935 11.5185 49.7725 11.6165 49.7865 11.8125C49.8005 11.9945 49.8985 12.3165 50.0805 12.7785C50.1645 13.0025 50.3115 13.3735 50.5215 13.8915C50.7315 14.3955 50.9765 14.9905 51.2565 15.6765C51.5365 16.3485 51.8305 17.0555 52.1385 17.7975C52.4465 18.5395 52.7405 19.2535 53.0205 19.9395C53.3005 20.6115 53.5525 21.2065 53.7765 21.7245C54.0005 22.2425 54.1615 22.6135 54.2595 22.8375C54.4695 23.2995 54.6725 23.6285 54.8685 23.8245C55.0645 24.0205 55.2115 24.1185 55.3095 24.1185H50.5425C50.6545 24.1045 50.7455 23.9995 50.8155 23.8035C50.8995 23.5935 50.8995 23.2715 50.8155 22.8375C50.8015 22.7395 50.7875 22.6625 50.7735 22.6065C50.7595 22.5365 50.7315 22.4385 50.6895 22.3125C50.6335 22.1025 50.5705 21.9555 50.5005 21.8715C50.4305 21.7735 50.3115 21.7175 50.1435 21.7035C49.9895 21.6895 49.7305 21.6825 49.3665 21.6825H45.7545C45.3765 21.6825 45.0965 21.6965 44.9145 21.7245C44.7325 21.7385 44.6065 21.7875 44.5365 21.8715C44.4665 21.9555 44.4105 22.0955 44.3685 22.2915C44.3545 22.3615 44.3335 22.4525 44.3055 22.5645C44.2915 22.6765 44.2775 22.7675 44.2635 22.8375C44.1655 23.2855 44.1375 23.6075 44.1795 23.8035C44.2355 23.9995 44.3055 24.1045 44.3895 24.1185H39.9795ZM46.3005 19.3725H48.7575C49.1635 19.3725 49.3875 19.3375 49.4295 19.2675C49.4715 19.1975 49.4505 19.0435 49.3665 18.8055C49.1845 18.3575 49.0025 17.9025 48.8205 17.4405C48.6385 16.9645 48.4635 16.5025 48.2955 16.0545C48.1415 15.6065 48.0015 15.1935 47.8755 14.8155C47.7635 14.4235 47.6655 14.0945 47.5815 13.8285H47.5395C47.3435 14.3465 47.1405 14.8925 46.9305 15.4665C46.7205 16.0405 46.5245 16.5725 46.3425 17.0625C46.1605 17.5525 46.0135 17.9585 45.9015 18.2805C45.7895 18.5885 45.7335 18.7425 45.7335 18.7425C45.6355 18.9665 45.6005 19.1275 45.6285 19.2255C45.6565 19.3235 45.8805 19.3725 46.3005 19.3725ZM55.9913 24.1185C56.0893 24.1185 56.1873 24.0205 56.2853 23.8245C56.3833 23.6285 56.4323 23.3065 56.4323 22.8585V12.7785C56.4323 12.3305 56.3833 12.0155 56.2853 11.8335C56.1873 11.6375 56.0893 11.5325 55.9913 11.5185H60.1073C60.0093 11.5185 59.9813 11.6165 60.0233 11.8125C60.0793 12.0085 60.3103 12.3445 60.7163 12.8205C60.8283 12.9325 61.0103 13.1425 61.2623 13.4505C61.5283 13.7445 61.8433 14.1015 62.2073 14.5215C62.5713 14.9415 62.9563 15.3965 63.3623 15.8865C63.7823 16.3765 64.2023 16.8665 64.6223 17.3565C65.0563 17.8465 65.4693 18.3155 65.8613 18.7635H65.8823V12.7785C65.8823 12.3305 65.8333 12.0155 65.7353 11.8335C65.6373 11.6375 65.5393 11.5325 65.4413 11.5185H69.5573C69.4593 11.5185 69.3613 11.6165 69.2633 11.8125C69.1653 12.0085 69.1163 12.3375 69.1163 12.7995V22.8585C69.1163 23.3065 69.1653 23.6285 69.2633 23.8245C69.3613 24.0205 69.4593 24.1185 69.5573 24.1185H65.9453C66.0293 24.1185 66.0363 24.0205 65.9663 23.8245C65.9103 23.6285 65.6933 23.2925 65.3153 22.8165C65.1193 22.5645 64.8603 22.2425 64.5383 21.8505C64.2163 21.4445 63.8523 20.9965 63.4463 20.5065C63.0543 20.0165 62.6413 19.5055 62.2073 18.9735C61.7733 18.4415 61.3393 17.9235 60.9053 17.4195C60.4853 16.9015 60.0933 16.4255 59.7293 15.9915H59.6663V22.8585C59.6663 23.3065 59.7153 23.6285 59.8133 23.8245C59.9113 24.0205 60.0093 24.1185 60.1073 24.1185H55.9913ZM75.2713 24.1185C75.3693 24.1185 75.4673 24.0205 75.5653 23.8245C75.6633 23.6285 75.7123 23.3065 75.7123 22.8585V14.4585C75.7123 14.1505 75.6773 13.9685 75.6073 13.9125C75.5373 13.8565 75.2923 13.8285 74.8723 13.8285H73.3393C72.5273 13.8285 71.8693 13.9195 71.3653 14.1015C70.8753 14.2695 70.5533 14.4305 70.3993 14.5845L70.8193 12.1485V11.5185H83.8393V12.1485L84.2593 14.5845C84.1053 14.4305 83.7763 14.2695 83.2723 14.1015C82.7823 13.9195 82.1313 13.8285 81.3193 13.8285H79.8073C79.3733 13.8285 79.1213 13.8565 79.0513 13.9125C78.9813 13.9685 78.9463 14.1505 78.9463 14.4585V22.8585C78.9463 23.3065 78.9953 23.6285 79.0933 23.8245C79.1913 24.0205 79.2893 24.1185 79.3873 24.1185H75.2713ZM85.0927 24.1185C85.1907 24.1185 85.2817 24.0275 85.3657 23.8455C85.4637 23.6495 85.5127 23.3205 85.5127 22.8585V12.7785C85.5127 12.3305 85.4637 12.0085 85.3657 11.8125C85.2817 11.6165 85.1907 11.5185 85.0927 11.5185H89.1457C89.0477 11.5185 88.9497 11.6165 88.8517 11.8125C88.7537 11.9945 88.7047 12.3235 88.7047 12.7995V22.8585C88.7047 23.3065 88.7537 23.6285 88.8517 23.8245C88.9497 24.0205 89.0477 24.1185 89.1457 24.1185H85.0927ZM97.4401 24.3285C95.0321 24.3285 93.2891 23.7545 92.2111 22.6065C91.1471 21.4445 90.6151 19.8275 90.6151 17.7555C90.6151 16.4255 90.8461 15.2845 91.3081 14.3325C91.7841 13.3665 92.5191 12.6245 93.5131 12.1065C94.5211 11.5745 95.8301 11.3085 97.4401 11.3085H98.0911C99.6731 11.3085 100.954 11.5675 101.934 12.0855C102.928 12.6035 103.656 13.3455 104.118 14.3115C104.58 15.2775 104.811 16.4255 104.811 17.7555C104.811 19.8275 104.279 21.4445 103.215 22.6065C102.151 23.7545 100.443 24.3285 98.0911 24.3285H97.4401ZM97.6501 21.9975H97.8811C98.7351 21.9975 99.4351 21.8575 99.9811 21.5775C100.541 21.2975 100.954 20.8495 101.22 20.2335C101.486 19.6035 101.619 18.7775 101.619 17.7555C101.619 16.7615 101.479 15.9635 101.199 15.3615C100.933 14.7455 100.52 14.3045 99.9601 14.0385C99.4141 13.7585 98.7211 13.6185 97.8811 13.6185H97.6501C96.7821 13.6185 96.0611 13.7655 95.4871 14.0595C94.9131 14.3395 94.4861 14.7805 94.2061 15.3825C93.9401 15.9845 93.8071 16.7755 93.8071 17.7555C93.8071 18.7775 93.9471 19.6035 94.2271 20.2335C94.5211 20.8495 94.9481 21.2975 95.5081 21.5775C96.0821 21.8575 96.7961 21.9975 97.6501 21.9975ZM102.522 27.9405C101.78 27.9405 101.143 27.8145 100.611 27.5625C100.093 27.3245 99.6381 27.0235 99.2461 26.6595C98.8681 26.3095 98.5181 25.9525 98.1961 25.5885C97.8881 25.2385 97.5871 24.9375 97.2931 24.6855C96.9991 24.4475 96.6771 24.3285 96.3271 24.3285C96.1311 24.3285 95.9771 24.3845 95.8651 24.4965C95.7671 24.6225 95.7181 24.8395 95.7181 25.1475C95.7181 25.3855 95.7391 25.5955 95.7811 25.7775C95.8371 25.9735 95.8861 26.1205 95.9281 26.2185C95.7041 26.0785 95.4031 25.9385 95.0251 25.7985C94.6611 25.6585 94.3251 25.5885 94.0171 25.5885C94.0171 24.8465 94.2831 24.2795 94.8151 23.8875C95.3471 23.4815 95.9911 23.2785 96.7471 23.2785C97.5031 23.2785 98.1681 23.3835 98.7421 23.5935C99.3161 23.7895 99.8201 24.0345 100.254 24.3285C100.688 24.6225 101.073 24.9165 101.409 25.2105C101.745 25.5045 102.053 25.7495 102.333 25.9455C102.613 26.1555 102.893 26.2605 103.173 26.2605C103.397 26.2605 103.551 26.1975 103.635 26.0715C103.733 25.9595 103.782 25.8055 103.782 25.6095C103.782 25.3295 103.733 25.0705 103.635 24.8325C103.551 24.6085 103.46 24.4405 103.362 24.3285H105.483C105.483 24.7205 105.434 25.1265 105.336 25.5465C105.252 25.9665 105.098 26.3585 104.874 26.7225C104.65 27.0865 104.349 27.3805 103.971 27.6045C103.593 27.8285 103.11 27.9405 102.522 27.9405ZM113.097 24.3285C111.683 24.3285 110.521 24.1045 109.611 23.6565C108.701 23.2085 108.029 22.5645 107.595 21.7245C107.161 20.8705 106.944 19.8555 106.944 18.6795V12.7575C106.944 12.3095 106.895 11.9945 106.797 11.8125C106.713 11.6165 106.622 11.5185 106.524 11.5185H110.556C110.458 11.5325 110.36 11.6305 110.262 11.8125C110.178 11.9945 110.136 12.3095 110.136 12.7575V18.6375C110.136 19.5335 110.262 20.2265 110.514 20.7165C110.766 21.2065 111.116 21.5425 111.564 21.7245C112.012 21.9065 112.53 21.9975 113.118 21.9975H113.349C113.811 21.9975 114.217 21.9485 114.567 21.8505C114.931 21.7525 115.232 21.5845 115.47 21.3465C115.722 21.1085 115.911 20.7725 116.037 20.3385C116.177 19.8905 116.247 19.3235 116.247 18.6375V12.7575C116.247 12.3095 116.198 11.9945 116.1 11.8125C116.016 11.6165 115.925 11.5185 115.827 11.5185H119.859C119.761 11.5325 119.663 11.6375 119.565 11.8335C119.481 12.0155 119.439 12.3305 119.439 12.7785V18.6795C119.439 19.8555 119.215 20.8705 118.767 21.7245C118.333 22.5645 117.661 23.2085 116.751 23.6565C115.855 24.1045 114.707 24.3285 113.307 24.3285H113.097ZM121.547 24.1185C121.645 24.1185 121.743 24.0205 121.841 23.8245C121.939 23.6285 121.988 23.3065 121.988 22.8585V12.7785C121.988 12.3305 121.939 12.0155 121.841 11.8335C121.743 11.6375 121.645 11.5325 121.547 11.5185H133.811V12.1485L134.231 14.5845C133.881 14.4305 133.265 14.2695 132.383 14.1015C131.501 13.9195 130.437 13.8285 129.191 13.8285H126.083C125.663 13.8285 125.411 13.8635 125.327 13.9335C125.257 13.9895 125.222 14.1645 125.222 14.4585V16.0125C125.222 16.3205 125.257 16.5025 125.327 16.5585C125.411 16.6145 125.656 16.6425 126.062 16.6425H129.086C129.898 16.6425 130.549 16.6005 131.039 16.5165C131.543 16.4185 131.872 16.3205 132.026 16.2225C131.97 16.4885 131.907 16.7965 131.837 17.1465C131.767 17.4965 131.711 17.8325 131.669 18.1545C131.627 18.4765 131.606 18.7425 131.606 18.9525H126.062C125.656 18.9525 125.411 18.9805 125.327 19.0365C125.257 19.0785 125.222 19.2605 125.222 19.5825V21.1365C125.222 21.4585 125.257 21.6475 125.327 21.7035C125.397 21.7595 125.642 21.7875 126.062 21.7875H131.732C132.544 21.7875 133.195 21.6965 133.685 21.5145C134.189 21.3185 134.518 21.1295 134.672 20.9475L134.252 23.4675V24.1185H121.547ZM142.532 24.3285C141.006 24.3285 139.655 24.2585 138.479 24.1185C137.303 23.9785 136.456 23.8385 135.938 23.6985V23.0685L135.518 20.4015C135.784 20.6255 136.225 20.8635 136.841 21.1155C137.457 21.3675 138.248 21.5845 139.214 21.7665C140.18 21.9345 141.3 22.0185 142.574 22.0185C143.358 22.0185 143.96 21.9695 144.38 21.8715C144.8 21.7595 145.087 21.6055 145.241 21.4095C145.395 21.2135 145.472 20.9825 145.472 20.7165C145.472 20.3805 145.36 20.1215 145.136 19.9395C144.912 19.7435 144.506 19.5825 143.918 19.4565C143.344 19.3305 142.525 19.1975 141.461 19.0575C140.187 18.8895 139.123 18.6585 138.269 18.3645C137.415 18.0705 136.778 17.6575 136.358 17.1255C135.938 16.5795 135.728 15.8585 135.728 14.9625C135.728 14.2345 135.917 13.5975 136.295 13.0515C136.673 12.5055 137.282 12.0785 138.122 11.7705C138.962 11.4625 140.075 11.3085 141.461 11.3085C142.917 11.3085 144.163 11.3785 145.199 11.5185C146.235 11.6585 146.949 11.7985 147.341 11.9385V12.5685L147.971 14.8785C147.621 14.6965 147.117 14.5075 146.459 14.3115C145.801 14.1155 145.038 13.9545 144.17 13.8285C143.302 13.6885 142.364 13.6185 141.356 13.6185C140.726 13.6185 140.236 13.6745 139.886 13.7865C139.536 13.8845 139.284 14.0315 139.13 14.2275C138.99 14.4095 138.92 14.6405 138.92 14.9205C138.92 15.2565 139.046 15.5295 139.298 15.7395C139.564 15.9355 139.991 16.0965 140.579 16.2225C141.167 16.3485 141.958 16.4675 142.952 16.5795C144.478 16.7475 145.654 16.9995 146.48 17.3355C147.306 17.6715 147.873 18.1055 148.181 18.6375C148.503 19.1555 148.664 19.7855 148.664 20.5275C148.664 21.1715 148.545 21.7385 148.307 22.2285C148.069 22.7045 147.698 23.0965 147.194 23.4045C146.704 23.7125 146.067 23.9435 145.283 24.0975C144.513 24.2515 143.596 24.3285 142.532 24.3285Z" fill="black"/>
<path fill-rule="evenodd" clip-rule="evenodd" d="M6.55658 16.5C11.8381 17.493 15.9935 21.5807 17.003 26.7762C18.0124 21.5807 22.1679 17.493 27.4494 16.5C22.1679 15.507 18.0124 11.4193 17.003 6.22382C15.9935 11.4193 11.8381 15.507 6.55658 16.5ZM4.52819 16.2772C11.1912 16.0419 16.5373 10.7829 16.7765 4.22848H17.2295C17.4687 10.7829 22.8148 16.0419 29.4778 16.2772V16.7228C22.8148 16.9581 17.4687 22.2171 17.2295 28.7715H16.7765C16.5373 22.2171 11.1912 16.9581 4.52819 16.7228V16.2772Z" fill="black"/>
<path fill-rule="evenodd" clip-rule="evenodd" d="M17.1593 4.22848L17 0L16.8407 4.22848H16.7705L16.6075 8.69753C15.994 12.5261 12.9126 15.5403 9.01239 16.1186L4.52227 16.2772V16.3374L0 16.5L4.52227 16.6626V16.7228L9.01232 16.8814C12.9126 17.4596 15.994 20.4738 16.6075 24.3025L16.7705 28.7715H16.8407L17 33L17.1593 28.7715H17.2236L17.3849 24.3511C17.98 20.4988 21.0719 17.4611 24.9895 16.8811L29.4719 16.7228V16.6628L34 16.5L29.4719 16.3372V16.2772L24.9894 16.1189C21.0719 15.5388 17.98 12.5012 17.3849 8.64892L17.2236 4.22848H17.1593ZM17.1593 4.22848H16.8407L16.7125 7.63033C16.6989 7.99202 16.6635 8.34816 16.6075 8.69753L16.3462 15.8597L9.01239 16.1186C8.67511 16.1686 8.3317 16.2004 7.98324 16.213L4.52227 16.3374V16.6626L7.98324 16.787C8.33168 16.7996 8.67506 16.8314 9.01232 16.8814L16.3462 17.1403L16.6075 24.3025C16.6635 24.6518 16.6989 25.008 16.7125 25.3697L16.8407 28.7715H17.1593L17.2875 25.3697C17.3005 25.0247 17.3333 24.6848 17.3849 24.3511L17.648 17.1403L24.9895 16.8811C25.3262 16.8312 25.669 16.7995 26.0168 16.787L29.4719 16.6628V16.3372L26.0168 16.213C25.6689 16.2005 25.3261 16.1688 24.9894 16.1189L17.648 15.8597L17.3849 8.64892C17.3333 8.31515 17.3005 7.97526 17.2875 7.63033L17.1593 4.22848ZM16.7841 16.2905L16.9971 10.4528L17.2101 16.2905L23.1444 16.5L17.2101 16.7095L16.9971 22.5471L16.7841 16.7095L10.8497 16.5L16.7841 16.2905Z" fill="black"/>
</svg>
